<svg xmlns="http://www.w3.org/2000/svg" width="37" height="45" viewBox="0 0 37 45"><path fill="#fff" d="M12.61 13.9V1.87a.9.9 0 0 0-.89-.88H6.9a.9.9 0 0 0-.89.88v12.1c-2.8.19-5.02 2.5-5.02 5.3v24.85c0 .47.42.88.89.88h14.85a.9.9 0 0 0 .89-.88V19.21c0-2.81-2.22-5.12-5.01-5.31zM11.34 2.24v3.82H7.28V2.24zm5.01 33.18H2.26V25.09h14.09zm20.29 6.28l-2.84-1.63-.48-1.23a.56.56 0 0 1-.02-.26l.66-6.46c.02-.16.07-.34.14-.48l1.25-2.1c.12-.24.19-.49.19-.77l.02-1.44c0-1.95-2.35-3.41-5.48-3.41-3.11 0-5.49 1.46-5.49 3.41l.02 1.44c0 .26.07.53.19.76l1.25 2.09c.07.16.12.32.14.48l.66 6.46c0 .1 0 .18-.02.25l-.4 1.2-2.92 1.69a.7.7 0 0 0-.36.6v1.78c0 .37.31.69.69.71 1.01.07 3.65.2 6.26.2 2.59 0 5.2-.13 6.21-.2a.72.72 0 0 0 .69-.7v-1.77a.73.73 0 0 0-.36-.62zm-3.06-1.21l2.5 1.44c-5.37.25-10.29.07-11.96-.02l2.42-1.43zm2.71 3.85c-.99.06-3.6.2-6.19.2-2.61 0-5.25-.14-6.26-.2-.12 0-.24-.12-.24-.26v-1.76a120.08 120.08 0 0 0 12.93 0v1.76c0 .14-.1.26-.24.26z"/></svg>