<svg xmlns="http://www.w3.org/2000/svg" width="24" height="36" viewBox="0 0 24 36"><path fill="#fff" d="M21.83 6.64L14.7 2.42a2.3 2.3 0 0 0-3.2.88l-1.03 1.83H2.46a2.38 2.38 0 0 0-2.35 2.4v6.3h22.55v-.38c0-.91-.39-1.39-1.03-1.64l1.06-1.87a2.46 2.46 0 0 0-.86-3.3zm-1.64 3.15c-.45.78-.84 1.14-1.65.68-.82-.46-5.51-3.18-5.51-3.18s-.61-.49-.44-1.25l.77-1.36s.31-.63 1.32 0c1.09.68 5.62 3.4 5.62 3.4s.63.43-.11 1.71zM1.81 3.94h5.88a1.6 1.6 0 0 0 1.58-1.62c0-.9-.71-1.63-1.58-1.63H1.81A1.6 1.6 0 0 0 .23 2.3c0 .9.71 1.63 1.58 1.63zM2.46 36h17.85c1.3 0 2.35-1.08 2.35-2.41v-.88H.11v.88A2.38 2.38 0 0 0 2.46 36zM.11 15.06h22.55v16.42H.11z"/></svg>