<svg xmlns="http://www.w3.org/2000/svg" width="38" height="41" viewBox="0 0 38 41"><path fill="#fff" d="M36 20a2 2 0 0 1 2 2v2h-8v-2c0-1.1.9-2 2-2h1v-5H17v2a1 1 0 0 1-1 1h-4a1 1 0 0 1-1-1v-5a1 1 0 0 1 1-1h4a1 1 0 0 1 1 1v2h17v6zm2 19a2 2 0 0 1-2 2h-4a2 2 0 0 1-2-2V25h8zM2 1h8v5a1 1 0 0 0 1 1h6a1 1 0 0 0 1-1V1h8a2 2 0 0 1 2 2v10H18v-2a1 1 0 0 0-1-1h-6a1 1 0 0 0-1 1v11a1 1 0 0 0 1 1h6a1 1 0 0 0 1-1v-6h10v23a2 2 0 0 1-2 2h-5v-2H7v2H2a2 2 0 0 1-2-2V3c0-1.1.9-2 2-2zm25 36v-1H1v1zm0-8v-1H1v1zM12 0h4a1 1 0 0 1 1 1v4a1 1 0 0 1-1 1h-4a1 1 0 0 1-1-1V1a1 1 0 0 1 1-1zM3 6a2 2 0 1 0 4 0 2 2 0 0 0-4 0zm2-1a1 1 0 1 1 0 2 1 1 0 0 1 0-2zm16 1a2 2 0 1 0 4 0 2 2 0 0 0-4 0zm2-1a1 1 0 1 1 0 2 1 1 0 0 1 0-2z"/></svg>