<svg xmlns="http://www.w3.org/2000/svg" width="26" height="35" viewBox="0 0 26 35"><path fill="#fff" d="M23.9 3.45h-1v-.29c0-1.2-.97-2.16-2.19-2.16H4.93c-1.22 0-2.19.96-2.19 2.16v.29h-1C.81 3.45.05 4.2.05 5.12v.71c0 .43.36.79.79.79h23.93c.43 0 .78-.36.78-.79v-.71a1.62 1.62 0 0 0-1.65-1.67zm-.46 4.05a.76.76 0 0 0-.54-.25H2.74a.64.64 0 0 0-.53.25.59.59 0 0 0-.18.54l2.44 26.32c.03.35.35.64.71.64h15.25c.35 0 .68-.29.71-.64l2.48-26.32a.65.65 0 0 0-.18-.54zm-3.66 26.07H5.86l-.68-7.11h15.28zm-4.95-15.33a6.34 6.34 0 0 0-2.44 2.64 5.03 5.03 0 0 1-2.37 2.3c-.14.08-.28 0-.35-.13-.43-1.07 0-2.64 1.22-3.81 1.21-1.2 2.86-1.67 3.94-1.17.07.03.07.14 0 .17zm.72.72c.14-.08.29 0 .36.1.53 1.07.1 2.7-1.15 3.95-1.29 1.28-3.01 1.7-4.09 1.1-.07-.03-.07-.14 0-.18a5.29 5.29 0 0 0 2.58-2.56 5.55 5.55 0 0 1 2.3-2.41zm5.92-3.17H4.18L3.5 8.68h18.61z"/></svg>