<svg xmlns="http://www.w3.org/2000/svg" width="1028" height="47" viewBox="0 0 1028 47"><path fill="#fff" d="M707.79 33.03a8.45 8.45 0 0 1-6.54 8.11v-2.7a5.82 5.82 0 0 0 3.92-5.4c0-4.91-2.34-6.08-3.92-5.54v-2.64c4.91 0 6.54 3.28 6.54 8.17zm-25.96-22.57c-2.16-2.24.72-4.49 1.76-5.54-.65 1.84-1.57 3.36-.13 4.81 2.16 2.24-.72 4.48-1.76 5.54.65-1.91 1.5-3.43.13-4.81zm6.34-.93c-2.62-2.63.78-5.2 2.1-6.52-.8 2.24-1.77 4.02-.14 5.73 2.62 2.64-.78 5.21-2.1 6.53.8-2.24 1.77-4.02.14-5.74zm6.67.93c-2.22-2.24.72-4.49 1.76-5.54-.65 1.84-1.56 3.36-.13 4.81 2.23 2.24-.72 4.48-1.76 5.54.65-1.91 1.57-3.43.13-4.81zm4.45 8.04h-14.72v7.48l2.62 1.58c.2.13.33.33.33.6V35c0 .4-.33.66-.66.66h-5.23a.66.66 0 0 1-.65-.66v-6.86a.7.7 0 0 1 .32-.59l2.62-1.58V18.5h-4.9a.66.66 0 0 0-.66.66v22.77a3.3 3.3 0 0 0 3.27 3.3h15.04a3.3 3.3 0 0 0 3.27-3.3V19.16c0-.4-.33-.66-.65-.66zM211.93 16.46l-6.76 6.69s-2 0-4.08-2c-2-2.01-2-4.08-2-4.08l6.75-6.75c-3.81-.94-8.43.33-11.24 3.14-4.22 4.2-.47 9.55-1.54 10.62-5.9 6.15-11.99 10.82-12.12 11.03-1.8 1.8-1.87 4.67-.13 6.34a4.53 4.53 0 0 0 6.36-.13c.2-.2 5.22-6.55 11.04-12.36 1.07-1.07 6.23 2.87 10.58-1.4a12.28 12.28 0 0 0 3.14-11.1zm-27.5 23.39a1.94 1.94 0 0 1-1.95-1.94c0-1.13.87-2 1.94-2 1.07 0 1.94.87 1.94 1.93a2 2 0 0 1-1.94 2zM573.9 13.45h-1v-.29c0-1.2-.97-2.16-2.19-2.16h-15.78c-1.22 0-2.19.96-2.19 2.16v.29h-1c-.93 0-1.69.75-1.69 1.67v.71c0 .43.36.78.8.78h23.92a.8.8 0 0 0 .78-.78v-.7a1.63 1.63 0 0 0-1.64-1.68zm-.46 4.05a.77.77 0 0 0-.54-.25h-20.16c-.21 0-.4.08-.53.25a.62.62 0 0 0-.18.54l2.43 26.32c.04.35.36.64.72.64h15.25c.35 0 .68-.29.71-.64l2.48-26.32a.62.62 0 0 0-.18-.54zm-3.66 26.07h-13.92l-.68-7.11h15.28zm-4.95-15.32a6.3 6.3 0 0 0-2.44 2.63 5.05 5.05 0 0 1-2.36 2.3c-.15.08-.3 0-.36-.13-.43-1.07 0-2.64 1.22-3.81 1.22-1.2 2.87-1.67 3.94-1.17a.1.1 0 0 1 0 .17zm.72.7c.14-.07.29 0 .36.11.54 1.07.1 2.7-1.15 3.95-1.3 1.28-3.01 1.7-4.09 1.1a.1.1 0 0 1 0-.18 5.36 5.36 0 0 0 2.58-2.56 5.54 5.54 0 0 1 2.3-2.41zm5.92-3.16h-17.3l-.67-7.11h18.61zM806.6 13.9V1.87a.9.9 0 0 0-.88-.88h-4.82a.9.9 0 0 0-.9.88v12.1c-2.79.18-5 2.5-5 5.3v24.85c0 .47.41.88.88.88h14.85a.9.9 0 0 0 .89-.88V19.21c0-2.81-2.22-5.12-5.01-5.31zm-1.26-11.66v3.82h-4.06V2.24zm5.01 33.18h-14.09V25.1h14.09zm20.3 6.28l-2.86-1.63-.47-1.23c-.02-.1-.04-.19-.02-.26l.66-6.46c.02-.16.07-.34.14-.48l1.25-2.1c.12-.24.19-.5.19-.77l.02-1.44c0-1.95-2.35-3.41-5.49-3.41-3.1 0-5.48 1.46-5.48 3.41l.02 1.44c0 .26.07.53.2.76l1.24 2.09c.07.16.12.32.14.48l.66 6.46c0 .1 0 .18-.02.25l-.4 1.2-2.92 1.69a.7.7 0 0 0-.36.6v1.78c0 .37.3.7.69.71 1 .07 3.64.21 6.26.21 2.59 0 5.2-.14 6.22-.2a.71.71 0 0 0 .68-.72v-1.76a.75.75 0 0 0-.36-.62zm-3.07-1.21l2.5 1.44c-5.37.25-10.29.07-11.96-.02l2.42-1.43zm2.71 3.85c-.99.06-3.6.2-6.2.2s-5.24-.14-6.25-.2c-.12 0-.24-.12-.24-.26v-1.76c.64.05 3.27.16 6.73.16 1.89 0 4-.05 6.2-.16v1.76c0 .14-.1.26-.24.26zM1025.83 12.64l-7.13-4.22a2.3 2.3 0 0 0-3.2.88l-1.03 1.83h-8.01a2.38 2.38 0 0 0-2.35 2.4v6.3h22.55v-.38c0-.92-.39-1.39-1.03-1.64l1.06-1.87a2.46 2.46 0 0 0-.86-3.3zm-1.64 3.15c-.45.78-.84 1.14-1.65.68-.82-.46-5.51-3.18-5.51-3.18s-.61-.49-.44-1.24l.77-1.37s.31-.63 1.32 0c1.09.68 5.62 3.4 5.62 3.4s.63.43-.11 1.71zm-18.38-5.85h5.88a1.6 1.6 0 0 0 1.58-1.62c0-.9-.71-1.63-1.58-1.63h-5.88a1.6 1.6 0 0 0-1.58 1.63c0 .9.71 1.62 1.58 1.62zm.65 32.06h17.85c1.3 0 2.35-1.08 2.35-2.41v-.87h-22.55v.87a2.38 2.38 0 0 0 2.35 2.4zm-2.35-20.94h22.55v16.42h-22.55zM370 26a2 2 0 0 1 2 2v2h-8v-2c0-1.1.9-2 2-2h1v-5h-16v2a1 1 0 0 1-1 1h-4a1 1 0 0 1-1-1v-5a1 1 0 0 1 1-1h4a1 1 0 0 1 1 1v2h17v6zm2 19a2 2 0 0 1-2 2h-4a2 2 0 0 1-2-2V31h8zM336 7h8v5a1 1 0 0 0 1 1h6a1 1 0 0 0 1-1V7h8a2 2 0 0 1 2 2v10h-10v-2a1 1 0 0 0-1-1h-6a1 1 0 0 0-1 1v11a1 1 0 0 0 1 1h6a1 1 0 0 0 1-1v-6h10v23a2 2 0 0 1-2 2h-5v-2h-14v2h-5a2 2 0 0 1-2-2V9c0-1.1.9-2 2-2zm25 36v-1h-26v1zm0-8v-1h-26v1zM346 6h4a1 1 0 0 1 1 1v4a1 1 0 0 1-1 1h-4a1 1 0 0 1-1-1V7a1 1 0 0 1 1-1zm-9 6a2 2 0 1 0 4 0 2 2 0 0 0-4 0zm2-1a1 1 0 1 1 0 2 1 1 0 0 1 0-2zm16 1a2 2 0 1 0 4 0 2 2 0 0 0-4 0zm2-1a1 1 0 1 1 0 2 1 1 0 0 1 0-2zM3 11h56a2 2 0 0 1 2 2v5.49a.5.5 0 0 0-.5-.49h-59a.5.5 0 0 0 0 1H17a2 2 0 0 0-2 2v1c0 .38.1.74.3 1.04a.5.5 0 0 0 .2.96H17v2c0 1.1.9 2 2 2h3a2 2 0 0 0 2-2v-2h1.5a.5.5 0 0 0 .2-.96A2 2 0 0 0 26 22v-1a2 2 0 0 0-2-2h15a2 2 0 0 0-2 2v1c0 .38.1.74.3 1.04a.5.5 0 0 0 .2.96H39v2c0 1.1.9 2 2 2h3a2 2 0 0 0 2-2v-2h1.5a.5.5 0 0 0 .2-.96A2 2 0 0 0 48 22v-1a2 2 0 0 0-2-2h14.5a.5.5 0 0 0 .5-.49V31.5a.5.5 0 0 0-.5-.49h-59a.5.5 0 0 0 0 1h59a.5.5 0 0 0 .5-.49V37a2 2 0 0 1-2 2H3a2 2 0 0 1-2-2V13c0-1.1.9-2 2-2zm9 30a2 2 0 0 1-2 2H8a2 2 0 0 1-1.73-3h5.46a2 2 0 0 1 .27 1zm44 0a2 2 0 0 1-2 2h-2a2 2 0 0 1-1.73-3h5.46a2 2 0 0 1 .27 1zM2 21.5v7c0 .83.67 1.5 1.5 1.5h1c.83 0 1.5-.67 1.5-1.5v-7c0-.83-.67-1.5-1.5-1.5h-1c-.83 0-1.5.67-1.5 1.5zm2-.5a1 1 0 0 1 1 1v6a1 1 0 0 1-2 0v-6a1 1 0 0 1 1-1zm52 .5v7c0 .83.67 1.5 1.5 1.5h1c.83 0 1.5-.67 1.5-1.5v-7c0-.83-.67-1.5-1.5-1.5h-1c-.83 0-1.5.67-1.5 1.5zm2-.5a1 1 0 0 1 1 1v6a1 1 0 0 1-2 0v-6a1 1 0 0 1 1-1zm-40-2h5a2 2 0 1 1 0 4h-5a2 2 0 1 1 0-4zm5 6a2 2 0 0 1-2 2h-1a2 2 0 0 1-2-2v-1h5zm17-6h5a2 2 0 1 1 0 4h-5a2 2 0 1 1 0-4zm5 6a2 2 0 0 1-2 2h-1a2 2 0 0 1-2-2v-1h5zM4.55 13.96a2 2 0 0 0 1.37 2.47l.04.01a2 2 0 0 0 2.47-1.36l.02-.04a2 2 0 0 0-1.37-2.48h-.04a2 2 0 0 0-2.48 1.36zm.79.2a1.21 1.21 0 1 1 2.32.68 1.21 1.21 0 1 1-2.32-.68zm10 0a1.21 1.21 0 0 0 2.32.68 1.21 1.21 0 0 0-2.32-.68zm.46.14a.73.73 0 0 1 1.4.4.73.73 0 0 1-1.4-.4zm5.54-.14a1.21 1.21 0 0 0 2.32.68 1.21 1.21 0 0 0-2.32-.68zm1.36-.36c.4.1.62.51.5.9a.73.73 0 1 1-.5-.9zm4.64.36a1.21 1.21 0 0 0 2.32.68 1.21 1.21 0 0 0-2.32-.68zm1.36-.36c.4.1.62.51.5.9a.73.73 0 1 1-.5-.9z"/></svg>