<svg xmlns="http://www.w3.org/2000/svg" width="60" height="32" viewBox="0 0 60 32"><path fill="#fff" d="M2 0h56a2 2 0 0 1 2 2v24a2 2 0 0 1-2 2H2a2 2 0 0 1-2-2V2C0 .9.9 0 2 0zm53 30a2 2 0 0 1-2 2h-2a2 2 0 0 1-1.73-3h5.46a2 2 0 0 1 .27 1zm-44 0a2 2 0 0 1-2 2H7a2 2 0 0 1-1.73-3h5.46a2 2 0 0 1 .27 1zM1 10.5v7c0 .83.67 1.5 1.5 1.5h1c.83 0 1.5-.67 1.5-1.5v-7C5 9.67 4.33 9 3.5 9h-1C1.67 9 1 9.67 1 10.5zm2-.5a1 1 0 0 1 1 1v6a1 1 0 0 1-2 0v-6a1 1 0 0 1 1-1zm52 .5v7c0 .83.67 1.5 1.5 1.5h1c.83 0 1.5-.67 1.5-1.5v-7c0-.83-.67-1.5-1.5-1.5h-1c-.83 0-1.5.67-1.5 1.5zm2-.5a1 1 0 0 1 1 1v6a1 1 0 0 1-2 0v-6a1 1 0 0 1 1-1zm-43 1c0 .38.1.74.3 1.04a.5.5 0 0 0 .2.96H16v2c0 1.1.9 2 2 2h3a2 2 0 0 0 2-2v-2h1.5a.5.5 0 0 0 .2-.96A2 2 0 0 0 25 11v-1a2 2 0 0 0-2-2h-1a2 2 0 1 1 0 4h-5a2 2 0 1 1 0-4h-1a2 2 0 0 0-2 2zm8 3a2 2 0 0 1-2 2h-1a2 2 0 0 1-2-2v-1h5zm14-3c0 .38.1.74.3 1.04a.5.5 0 0 0 .2.96H38v2c0 1.1.9 2 2 2h3a2 2 0 0 0 2-2v-2h1.5a.5.5 0 0 0 .2-.96A2 2 0 0 0 47 11v-1a2 2 0 0 0-2-2h-1a2 2 0 1 1 0 4h-5a2 2 0 1 1 0-4h-1a2 2 0 0 0-2 2zm8 3a2 2 0 0 1-2 2h-1a2 2 0 0 1-2-2v-1h5zM3.55 2.96a2 2 0 0 0 1.37 2.47l.04.02a2 2 0 0 0 2.47-1.37l.02-.04a2 2 0 0 0-1.37-2.48h-.04a2 2 0 0 0-2.47 1.36zm2.28-.62a1.21 1.21 0 0 1-.66 2.32 1.21 1.21 0 0 1 .66-2.32zm8.5.82a1.21 1.21 0 1 0 1.5-.83 1.21 1.21 0 0 0-1.5.83zm1.37-.36a.73.73 0 0 1-.4 1.4.73.73 0 0 1 .4-1.4zm4.64.36c-.19.65.18 1.32.82 1.5a1.21 1.21 0 1 0 .68-2.32 1.21 1.21 0 0 0-1.5.82zm1.36-.36c.4.1.62.51.5.9a.74.74 0 0 1-.9.5.73.73 0 0 1-.5-.9.74.74 0 0 1 .9-.5zm4.64.36c-.19.65.18 1.32.82 1.5a1.21 1.21 0 1 0 .68-2.32 1.21 1.21 0 0 0-1.5.82zm1.36-.36c.4.1.62.51.5.9a.74.74 0 0 1-.9.5.73.73 0 0 1-.5-.9.74.74 0 0 1 .9-.5z"/></svg>