<svg xmlns="http://www.w3.org/2000/svg" width="104" height="39">
  <path fill="#000" d="M3.23 25.9c-.44.56-.84 1.08-.84 1.8 0 .6.56.88 1.08.88 1.6 0 4.92-2.72 4.88-4.64l3.2-3.84 15.8 8.67c.4.25 1.52.88 2 .88.84 0 1-1.35 1-1.95 0-2.28-1.88-3.52-3.68-4.56l-10.12-5.88c-.6-.36-1.84-.84-1.84-1.68 0-.68.36-1.08.92-1.48l14.68-7.32c2.72.76 5.16-3.52 5.16-4.04 0-.44-.28-.76-.76-.76-.44 0-1.96.72-2.4.92L19.55 8.94l-.08-.08 2.04-2.96c.4-.6 1-1.4 1-2.12 0-.76-.72-1.68-1.16-2.24-.64-.76-.84-1.04-1.88-.96-6.12.32-12.12 3.28-14.16 4l-.08-.08C7.2 2.82 7.07 2.9 7.07 2.58c0-.24-.12-.44-.4-.44-.44 0-.88.36-1.24.6l-2.2 1.64c-1.32 1-1.68 1.08-2.2 2.64-.28.8-1 2.96-1 3.76 0 .76.48 1.2 1.24 1.2a5.7 5.7 0 0 0 2.28-.76c6.28-3.08 8.92-4.48 15.6-6.08l-3.88 6.08-4.24 2.2c-1.24.64-2.52 1.52-2.52 3.12 0 .72.28 1.12.68 1.68zm43.48-5.4l-.33.25c-.5.29-.94.59-1.22 1.04-.74.58-1.55 1.01-2.57.83.76-1.56 1.56-2.96 1.56-4.72 0-1.2-.24-2.04-1.44-2.36.44-.24.92-.48.92-1.08 0-1.08-1.32-1.48-2.2-1.44-2.44.12-5.32 1.2-7.48 2.96-2.24 1.72-3.72 3.72-3.64 6.72.16 3.64 2.08 5.72 4.16 5.72 2.52 0 4.48-1.28 6.16-3 1.85 0 3.24-.39 4.46-1.25.22.42.54.78.9 1.17-1.08 2.28-2.8 5.43-2.8 8.03 0 1.32.52 5.04 2.36 4.76 2.92-.44 8.52-4.84 8.84-9.6.04-.71.12-1.43-.04-2.2 1.64-.8 3.02-1.9 4.36-3.08a7 7 0 0 0 0 .33c.08 2.64 1.44 5.23 4.36 5.23 3.96 0 8.36-3.75 10.8-6.6l-.36-1.51c-2.12 1.68-5.48 4.6-8.32 4.6-1.28 0-2.6-.52-2.48-2.04l.08-.88c7.68-2.52 9.64-5.48 9.64-7.44 0-1.6-1.6-1.92-2.88-1.92-4.36-.04-9.14 3.73-10.48 8.04l-5.4 3.36c-.52-1.16-.92-2.48-2.08-3.16l7.48-10.44c.88-1.24 2.08-4.04 2.08-5.6 0-.64-.08-1.76-.96-1.76-2.04 0-7.2 9.52-8.24 11.48-1.24 2.28-2.52 4.16-4.88 5.44l-.34.18zm-7.36-3.12c.16.08-1.72 2.6-1.72 4.68 0 .68.2 1.2.48 1.84-.92.84-1.76 1.6-3.08 1.6-1 0-1.76-.36-1.76-1.52 0-1.24.76-2.8 1.64-3.68 1.2-1.16 3.08-2.12 4.44-2.92zm8.16 17.47a5.92 5.92 0 0 1-.8-3.56c.16-1.32.8-2.76 1.84-4.51.96.36 1.6.4 2.88.32.36 3-1.44 6.11-3.92 7.75zm15.52-14.43c1.08-2.64 3.4-4.56 5.4-5.08.28-.08.48.16.48.44.04.68-2.36 3.44-5.88 4.64zm20.12-9.36c.04-.92 4.48-4.64 14.8-5l.08.08c-2.16 1.48-2.92 2.72-2.92 2.8 0 .4.24.6.64.6.32 0 .72-.24 1-.4a11.33 11.33 0 0 1 3.6-1.96c2.36-.92 3.36-1.6 3.36-4.56 0-.8-.12-1.12-1.04-1.32a24.05 24.05 0 0 0-5.04-.56c-8.76 0-16 3.8-17.24 5.84-.64 1.08-1.28 4-1.28 5.32 0 2.4 2.08 3.04 4.08 3.36 1.92.32 13 1.92 13 3.96 0 .64-3.92 4.76-18.2 4.24v-.08c.24-.24.44-.44.68-.6.28-.16.68-.36.68-.76 0-.24-.12-.28-.32-.28-.6 0-2.96.76-3.44 1.16-.64.6-2.04 2.72-2.04 3.56 0 2.31 4.88 2.31 6.44 2.31 5.76 0 19.72-1.28 19.72-9.23 0-1.96-1.88-4.08-5.92-5.04-11.16-2.6-10.64-2.88-10.64-3.44z"/>
</svg>
