<svg xmlns="http://www.w3.org/2000/svg" width="34" height="33" viewBox="0 0 34 33"><path fill="#fff" d="M32.93 6.46l-6.76 6.69s-2.01 0-4.08-2c-2.01-2.01-2.01-4.08-2.01-4.08L26.84.32c-3.81-.94-8.43.33-11.24 3.14-4.22 4.2-.47 9.55-1.54 10.62C8.17 20.23 2.08 24.9 1.94 25.11c-1.81 1.8-1.87 4.67-.13 6.34a4.53 4.53 0 0 0 6.36-.13c.2-.2 5.22-6.55 11.04-12.36 1.07-1.07 6.23 2.87 10.58-1.4a12.28 12.28 0 0 0 3.14-11.1zM5.42 29.85a1.94 1.94 0 0 1-1.94-1.94c0-1.13.87-2 1.94-2 1.07 0 1.94.87 1.94 1.94a2 2 0 0 1-1.94 2z"/></svg>