<svg xmlns="http://www.w3.org/2000/svg" width="30" height="43" viewBox="0 0 30 43"><path fill="#fff" d="M29.79 30.03a8.46 8.46 0 0 1-6.54 8.11v-2.7a5.83 5.83 0 0 0 3.92-5.4c0-4.91-2.34-6.08-3.92-5.54v-2.64c4.91 0 6.54 3.28 6.54 8.17zM3.83 7.46c-2.16-2.24.72-4.49 1.76-5.54-.65 1.84-1.57 3.36-.13 4.81 2.16 2.24-.72 4.48-1.76 5.54.65-1.91 1.5-3.43.13-4.81zm6.34-.93c-2.62-2.63.78-5.2 2.09-6.52-.78 2.24-1.76 4.02-.13 5.73 2.62 2.64-.78 5.21-2.09 6.53.78-2.24 1.76-4.02.13-5.74zm6.67.93c-2.22-2.24.72-4.49 1.76-5.54-.65 1.84-1.56 3.36-.13 4.81 2.23 2.24-.72 4.48-1.76 5.54.65-1.91 1.57-3.43.13-4.81zm4.45 8.04H6.57v7.48l2.62 1.58c.2.13.33.33.33.6V32c0 .4-.33.66-.66.66H3.63a.65.65 0 0 1-.65-.66v-6.86a.7.7 0 0 1 .32-.59l2.62-1.58V15.5h-4.9a.66.66 0 0 0-.66.66v22.77a3.3 3.3 0 0 0 3.27 3.3h15.04a3.3 3.3 0 0 0 3.27-3.3V16.16c0-.4-.33-.66-.65-.66z"/></svg>